<svg id="pa11y-logo" xmlns="http://www.w3.org/2000/svg" viewBox="0 0 640 640">
  <defs>
    <style>
      .cls-1 {
        opacity: 0.1;
      }

      .cls-2 {
        fill: #1d1d1b;
      }

      .cls-3 {
        fill: #1d1d1b;
      }

      .cls-4, .cls-7 {
        fill: hsla(60, 80%, 40%, 1);
      }

      .cls-4, .cls-5, .cls-8 {
        stroke: #000;
      }

      .cls-4, .cls-5, .cls-8 {
        stroke-miterlimit: 10;
      }

      .cls-4, .cls-5, .cls-6 {
        stroke-width: 1.89px;
      }

      .cls-5 {
        fill: hsla(60, 80%, 50%, 1);
      }

      .cls-6 {
        fill: hsla(60, 80%, 30%, 1);
        stroke-linecap: round;
        stroke-linejoin: round;
      }

      .cls-8 {
        fill: #fff;
        stroke-width: 0.86px;
      }
    </style>
  </defs>
  <g id="popsicle">
    <g id="shadow" class="cls-1">
      <path class="cls-2" d="M424.5,610.8c-14.73,0-31-1.8-38.65-4.27l-47.12-15.25-57.82,1.83c-2.76.09-5.65.13-8.6.13A337.1,337.1,0,0,1,225,589.88c-20.05-1-38.69-3.58-48.53-6.76L29,535.41c-15.17-4.91-22.5-9.92-21.8-14.91,2-14,66.71-17.14,86.5-17.77,8.75-.28,17.94-.42,27.31-.42a1106,1106,0,0,1,118.48,6.57C289.92,513,333.24,519.94,358.27,528l145.3,47c5.36,1.73,7.73,3.47,7.45,5.46-.67,4.68-18.16,5.92-28.52,6.25l-83.57,2.64,42.9,13.88c2.24.72,4.79,1.78,4.54,3.54-.32,2.26-6,3.58-16.77,3.92C428,610.77,426.25,610.8,424.5,610.8Z"/>
      <path d="M121,503.19a1104.05,1104.05,0,0,1,118.38,6.56c48.48,3.92,92.73,10.74,118.64,19.12l145.3,47c14.54,4.7,5.22,9.18-20.83,10l-88.6,2.8,47.69,15.42c8.37,2.7,3,5.28-12,5.76-1.65,0-3.34.07-5.07.07-14.37,0-30.7-1.74-38.38-4.23L338.85,590.4l-58,1.84c-2.79.08-5.66.13-8.57.13A335,335,0,0,1,225.16,589c-19.35-1-38.3-3.47-48.39-6.74L29.24,534.57c-45-14.55-16.15-28.42,64.46-31h0c8.88-.28,18-.41,27.28-.41m0-1.75c-9.38,0-18.58.14-27.33.42-26,.82-47.74,2.88-62.81,5.95C15.07,511,7.05,515.14,6.31,520.38c-.79,5.54,6.54,10.73,22.4,15.86L176.23,584c9.89,3.2,28.57,5.81,48.76,6.81a339.53,339.53,0,0,0,47.32,3.36c3,0,5.86,0,8.63-.13l57.66-1.83,47,15.2c7.73,2.5,24.09,4.31,38.91,4.31,1.76,0,3.49,0,5.13-.07,17-.54,17.43-3.44,17.6-4.67.39-2.72-3.48-4-5.13-4.51L404,590.1l78.55-2.48c28.49-.91,29.14-5.5,29.35-7,.46-3.23-4.06-5.13-8-6.42l-145.3-47c-25.09-8.12-68.47-15.12-119-19.21A1110,1110,0,0,0,121,501.44Z"/>
    </g>
    <g id="contour">
      <path class="cls-3" d="M428.28,609.48a28.06,28.06,0,0,1-27.89-26l-5.62-80.05-83.12,5.83c-1.11.08-2.24.12-3.35.12a47.37,47.37,0,0,1-47.08-43.93L243.69,215.79a145.78,145.78,0,0,1,44.68-115.74A145.78,145.78,0,0,1,396.72,39.64c3.36-.23,6.76-.35,10.11-.35A142.26,142.26,0,0,1,548.6,171.59L566.39,425a47.15,47.15,0,0,1-21.68,43.12,47.17,47.17,0,0,1-39.66,27.5l-53.73,3.77,5.57,79.33a28.72,28.72,0,0,1-26.62,30.65C429.61,609.45,428.94,609.48,428.28,609.48Z"/>
      <path d="M406.83,41.18A140.37,140.37,0,0,1,546.72,171.73l17.79,253.45a45.34,45.34,0,0,1-21.29,41.69,45.35,45.35,0,0,1-38.31,26.9l-55.61,3.91L455,578.9a26.8,26.8,0,0,1-24.87,28.62h0c-.62.05-1.24.07-1.85.07a26.11,26.11,0,0,1-26-24.28l-5.75-81.93-85,6c-1.08.08-2.16.11-3.22.11a45.35,45.35,0,0,1-45.2-42.18L245.58,215.65A143.88,143.88,0,0,1,289.8,101.3,143.89,143.89,0,0,1,396.86,41.53h0c3.34-.24,6.67-.35,10-.35m0-3.78v0h0c-3.4,0-6.84.12-10.24.36A147.63,147.63,0,0,0,286.94,98.81a147.6,147.6,0,0,0-45.13,117.11l17.52,249.63a49.27,49.27,0,0,0,49,45.69c1.15,0,2.33,0,3.49-.12l81.22-5.7,5.49,78.16a30,30,0,0,0,29.78,27.79c.7,0,1.41,0,2.12-.08a30.58,30.58,0,0,0,28.37-32.66l-5.43-77.45,51.84-3.64a49,49,0,0,0,41-28.09,49.05,49.05,0,0,0,22.09-44.54L550.49,171.46A144.16,144.16,0,0,0,406.84,37.4Z"/>
    </g>
    <path id="background-back" class="cls-4" d="M295.88,61.3H489.75a45.35,45.35,0,0,1,45.35,45.35V356.9A144.21,144.21,0,0,1,390.9,501.1h0A140.37,140.37,0,0,1,250.53,360.73V106.65A45.35,45.35,0,0,1,295.88,61.3Z" transform="translate(804.36 534.2) rotate(175.98)"/>
    <path id="background-front" class="cls-5" d="M313.41,41.12H507.28a45.35,45.35,0,0,1,45.35,45.35V336.72A144.21,144.21,0,0,1,408.43,480.93h0A140.37,140.37,0,0,1,268.06,340.55V86.48a45.35,45.35,0,0,1,45.35-45.35Z" transform="translate(837.96 492.67) rotate(175.98)"/>
    <path id="stick" class="cls-6" d="M399.93,490.47h52.91a0,0,0,0,1,0,0v90.35A26.81,26.81,0,0,1,426,607.64h0a26.1,26.1,0,0,1-26.1-26.1V490.47a0,0,0,0,1,0,0Z" transform="translate(-37.41 31.21) rotate(-4.02)"/>
  </g>
  <g id="face">
    <path id="mouth" class="cls-7" d="M400,358.82a26.46,26.46,0,0,0,2.62,37.32h0a26.46,26.46,0,0,0,37.33-2.62h0a26.45,26.45,0,0,0-2.63-37.32h0"/>
    <g id="eyes">
      <path id="eye-right" class="cls-7" d="M498.34,125.71h0a13,13,0,0,1,13,13V289.92A15.32,15.32,0,0,1,496,305.24h0a14.91,14.91,0,0,1-14.91-14.91V143a17.28,17.28,0,0,1,17.28-17.28Z" transform="matrix(1, -0.07, 0.07, 1, -13.87, 35.28)"/>
      <path id="eye-left" class="cls-7" d="M368.27,134.84h0a13,13,0,0,1,13,13V299a15.32,15.32,0,0,1-15.32,15.32h0A14.91,14.91,0,0,1,351,299.46V152.12a17.28,17.28,0,0,1,17.28-17.28Z" transform="translate(-14.83 26.19) rotate(-4.02)"/>
      <g id="glasses">
        <polygon points="605.74 205.84 209.3 163.63 205.34 203.54 229.08 206.72 227.9 226.24 249.34 227.89 247.68 245.66 266.49 247.15 264.77 267.44 372.81 274.57 413.64 229.72 436.83 230.66 481.59 285.95 561.76 291.73 563.71 271.53 581.6 273.32 583.69 254.91 602.41 256.62 603.59 238.53 619.95 240.07 622 207.53 605.74 205.84"/>
        <g>
          <rect class="cls-8" x="382.2" y="222.97" width="12.92" height="12.92" transform="translate(753.24 495.49) rotate(-174.43)"/>
          <rect class="cls-8" x="368.09" y="234.58" width="12.92" height="12.92" transform="translate(723.95 517.29) rotate(-174.43)"/>
          <rect class="cls-8" x="353.97" y="246.19" width="12.92" height="12.92" transform="translate(694.65 539.08) rotate(-174.43)"/>
          <rect class="cls-8" x="356.48" y="220.46" width="12.92" height="12.92" transform="translate(702.15 487.99) rotate(-174.43)"/>
          <rect class="cls-8" x="342.36" y="232.07" width="12.92" height="12.92" transform="translate(672.86 509.79) rotate(-174.43)"/>
          <rect class="cls-8" x="328.24" y="243.68" width="12.92" height="12.92" transform="translate(643.56 531.58) rotate(-174.43)"/>
        </g>
        <g>
          <rect class="cls-8" x="560.16" y="237.39" width="12.92" height="12.92" transform="translate(1106.91 541.52) rotate(-174.43)"/>
          <rect class="cls-8" x="546.04" y="249" width="12.92" height="12.92" transform="translate(1077.62 563.32) rotate(-174.43)"/>
          <rect class="cls-8" x="531.92" y="260.61" width="12.92" height="12.92" transform="translate(1048.32 585.11) rotate(-174.43)"/>
          <rect class="cls-8" x="534.43" y="234.88" width="12.92" height="12.92" transform="translate(1055.82 534.03) rotate(-174.43)"/>
          <rect class="cls-8" x="520.31" y="246.49" width="12.92" height="12.92" transform="translate(1026.53 555.82) rotate(-174.43)"/>
          <rect class="cls-8" x="506.2" y="258.1" width="12.92" height="12.92" transform="translate(997.23 577.61) rotate(-174.43)"/>
        </g>
      </g>
    </g>
  </g>
</svg>
