<svg xmlns="http://www.w3.org/2000/svg" viewBox="0 0 480 640"><defs><style>.cls-1{isolation:isolate;}.cls-2{fill:#4b1815;}.cls-3{fill:#4e1a13;}.cls-4{fill:#e4ae5a;}.cls-5{fill:#e5b664;}.cls-6{fill:#6b2c1e;}.cls-7{fill:#561e16;}.cls-8{fill:#461410;}.cls-10,.cls-9{fill:#914f45;}.cls-10{opacity:0.4;}.cls-11{fill:#ffe1a9;}.cls-12{fill:#d2a152;}.cls-13{fill:#fffaf0;opacity:0.6;}.cls-14{fill:#dd7e1e;}.cls-15{fill:#c06716;}.cls-16{fill:#efce83;}.cls-17{fill:#c5932d;}.cls-18{opacity:0.3;}.cls-19{fill:#e4a638;}.cls-19,.cls-20{mix-blend-mode:multiply;}.cls-21,.cls-23,.cls-24{fill:#fff;}.cls-22{fill:#1d1d1b;}.cls-23{stroke:#1d1d1b;stroke-linejoin:round;stroke-width:5.28px;}.cls-24{stroke:#000;stroke-miterlimit:10;stroke-width:0.6px;}</style></defs><g class="cls-1"><g id="Layer_1" data-name="Layer 1"><path class="cls-2" d="M113.82,440.08c-19-17.4-7.25-46.52-7.13-46.81l99.22-229.58c15.31-46.91,57.4-86,108.14-69.8a117.21,117.21,0,0,1,41.56,24.63c31.39,28.67,41.78,67.3,27.8,103.32L306.48,457.45C306,459,295,496,270.93,490.82a695.43,695.43,0,0,1-67.5-18.66c-8.9-2.89-19.39-5.94-29.53-8.89-20.92-6.09-42.56-12.38-52.75-18a38.25,38.25,0,0,1-7.33-5.2Z"/><path class="cls-3" d="M354.79,119.41c27.15,24.8,42.8,62.54,27.49,102L305.33,457.07s-10.95,37.59-34.14,32.57C254.44,486,230.9,479.89,203.8,471s-67.05-18.52-82.06-26.79a36.56,36.56,0,0,1-7.1-5c-18.64-17-6.83-45.45-6.83-45.45L207,164.17c15.84-48.52,58.11-84.64,106.66-69.12a116.06,116.06,0,0,1,41.11,24.36m1.63-1.79a118.19,118.19,0,0,0-42-24.87c-51.49-16.46-94.13,23-109.7,70.56L105.59,392.77C105.07,394,93.34,423,113,441a39.56,39.56,0,0,0,7.57,5.37c10.31,5.68,32,12,53,18.09,10.13,2.95,20.61,6,29.49,8.89A697.73,697.73,0,0,0,270.67,492c24.94,5.41,36.35-32.1,37-34.21l76.91-235.58a86.37,86.37,0,0,0,2.21-58c-5.3-17.18-15.8-33.29-30.35-46.58Z"/><path class="cls-4" d="M113.82,440.08c-19-17.4-7.25-46.52-7.13-46.81L112.87,379a1.2,1.2,0,0,1,1.46-.68L197,403.11l97.56,8.1a1.25,1.25,0,0,1,1.11,1.13,9.45,9.45,0,0,0,2.54,5.6c1.9,1.73,4.72,2,8.39.82a27,27,0,0,1,11.3-.95,1.19,1.19,0,0,1,.68.31,1.21,1.21,0,0,1,.21.24,1.24,1.24,0,0,1,.13,1l-12.43,38.06C306,459,295,496,270.93,490.82a695.43,695.43,0,0,1-67.5-18.66c-8.9-2.89-19.39-5.94-29.53-8.89-20.92-6.09-42.56-12.38-52.75-18a38.25,38.25,0,0,1-7.33-5.2Z"/><path class="cls-5" d="M317.76,419l-12.43,38.06s-10.95,37.59-34.14,32.57C254.44,486,230.9,479.89,203.8,471s-67.05-18.52-82.06-26.79a36.56,36.56,0,0,1-7.1-5c-18.64-17-6.83-45.45-6.83-45.45L114,379.46l82.78,24.85,97.69,8.11a10.62,10.62,0,0,0,2.94,6.41c1.83,1.68,4.79,2.63,9.57,1.08a25.88,25.88,0,0,1,10.8-.9m1.63-1.78a2.44,2.44,0,0,0-1.36-.62,28.1,28.1,0,0,0-11.82,1c-3.22,1-5.64.85-7.19-.56a8.41,8.41,0,0,1-2.16-4.79,2.4,2.4,0,0,0-2.21-2.25l-97.43-8.09-82.54-24.78a2.42,2.42,0,0,0-2.92,1.35l-6.17,14.28C105.07,394,93.34,423,113,441a39.56,39.56,0,0,0,7.57,5.37c10.31,5.68,32,12,53,18.09,10.13,2.95,20.61,6,29.49,8.89A697.73,697.73,0,0,0,270.67,492c24.94,5.41,36.35-32.1,37-34.21l12.41-38a2.41,2.41,0,0,0-.26-2.06,2.73,2.73,0,0,0-.41-.48Z"/><path class="cls-6" d="M111.22,430.52c-14.49-13.24-3.89-43.09-3.43-44.36l76.94-235.64a93.39,93.39,0,1,1,177.56,58l-77,235.68c-.45,1.54-11.53,38.57-35.55,33.37a696.57,696.57,0,0,1-67.5-18.66,695.38,695.38,0,0,1-65.51-24.77,20.8,20.8,0,0,1-5.55-3.6Z"/><path class="cls-3" d="M335.5,110.81a92.75,92.75,0,0,1,25.64,97.32L284.19,443.8S273.24,481.39,250,476.36a694.16,694.16,0,0,1-67.38-18.62A693.6,693.6,0,0,1,117.28,433a18.93,18.93,0,0,1-5.24-3.39c-14.06-12.84-3.11-43.05-3.11-43.05L185.88,150.9A91.85,91.85,0,0,1,335.5,110.81m1.63-1.79a94.73,94.73,0,0,0-153.55,41.13L106.64,385.79c-.64,1.76-11.19,32,3.77,45.62a21.82,21.82,0,0,0,5.88,3.82,699.57,699.57,0,0,0,65.62,24.82,697.27,697.27,0,0,0,67.62,18.68c24.94,5.4,36.35-32.1,37-34.21l76.94-235.64A95.38,95.38,0,0,0,337.13,109Z"/><path class="cls-7" d="M249.55,362a9.67,9.67,0,0,1-12.17,6.18h0A9.66,9.66,0,0,1,231.2,356l67.67-207.25A9.65,9.65,0,0,1,311,142.6h0a9.65,9.65,0,0,1,6.18,12.17Z"/><path class="cls-8" d="M311,142.6a9.66,9.66,0,0,0-2.93-.48,9.67,9.67,0,0,1,3.53,10.82L244,360.2a9.65,9.65,0,0,1-9.24,6.65A9.64,9.64,0,0,0,249.55,362l67.67-207.25A9.65,9.65,0,0,0,311,142.6Z"/><path class="cls-7" d="M191.54,343.08a9.67,9.67,0,0,1-12.17,6.18h0a9.66,9.66,0,0,1-6.18-12.17l67.67-207.26A9.65,9.65,0,0,1,253,123.66h0a9.64,9.64,0,0,1,6.18,12.16Z"/><path class="cls-8" d="M253,123.66a9.57,9.57,0,0,0-6.92.36,9.65,9.65,0,0,1,6.12,12.15L184.56,343.42a9.65,9.65,0,0,1-5.25,5.81l.06,0a9.67,9.67,0,0,0,12.17-6.18l67.67-207.26A9.64,9.64,0,0,0,253,123.66Z"/><path class="cls-9" d="M195.45,168.24c25-57.78,61.8-75.73,87-80.91a92.75,92.75,0,0,0-96.54,63.57L109,386.28C132.21,360.2,159.62,251.09,195.45,168.24Z"/><path class="cls-10" d="M250,476.36c23.2,5,34.15-32.56,34.15-32.56l76.95-235.67a92.61,92.61,0,0,0-13.88-84.29c8.28,23,15.94,56.14,7.23,86.14C340.57,257.9,285.14,442.55,248,475.91Z"/><path class="cls-11" d="M111.22,430.52c-14.49-13.24-3.89-43.09-3.43-44.36l15.59-47.75a1.2,1.2,0,0,1,1.61-.75,55.07,55.07,0,0,1,16.45,10.24,49,49,0,0,1,7.42,8.55,53.87,53.87,0,0,0,8,9.47c11,10.09,20.27,6.71,24.7,5.09a42.5,42.5,0,0,1,15.82-2.75c1.18,0,2.53.77,4.12,2.21,2.84,2.61,10.06,12.39,10.36,14.68h0c0,.93.6,6.62,3.69,9.44a6.22,6.22,0,0,0,2.5,1.4c3,.83,9.71-.68,15.65-2,7.11-1.59,13.25-3,16.13-1.64a8.9,8.9,0,0,0,7.49.42c.55-.17,1.08-.33,1.6-.44a5.63,5.63,0,0,0,1.63-.84c1.87-1.2,4.69-3,10.18-1.2,1.57.51,3.32,1.7,5.7,3.87,1.28,1.17,2.6,2.49,4,3.89s3,3,4.53,4.39c2.69,2.46,6.69,5.76,10.41,6.08a1.21,1.21,0,0,1,.72.31,1.06,1.06,0,0,1,.19.23,1.19,1.19,0,0,1,.14,1l-11.13,34.09c-.45,1.55-11.53,38.58-35.55,33.38a696.57,696.57,0,0,1-67.5-18.66,692.5,692.5,0,0,1-65.51-24.77,20.8,20.8,0,0,1-5.55-3.6Z"/><path class="cls-12" d="M295.32,409.71,284.19,443.8S273.24,481.39,250,476.36a694.16,694.16,0,0,1-67.38-18.62A693.6,693.6,0,0,1,117.28,433a18.93,18.93,0,0,1-5.24-3.39c-14.06-12.84-3.11-43.05-3.11-43.05l15.6-47.79a54,54,0,0,1,16.09,10,47.83,47.83,0,0,1,7.24,8.35,54.6,54.6,0,0,0,8.18,9.68c11.65,10.64,21.52,6.95,26,5.3a40.93,40.93,0,0,1,15.28-2.65,6.09,6.09,0,0,1,3.35,1.9c4.52,4.13,10.07,13.55,10,13.71s.31,7,4.08,10.4a7.28,7.28,0,0,0,3,1.68c6.58,1.83,26.62-6,31.6-3.73s7.45.56,9.85.07,4.28-4.34,11.19-2.08a16.37,16.37,0,0,1,5.25,3.62c2.62,2.39,5.51,5.52,8.53,8.27,3.62,3.31,7.42,6.08,11.13,6.4m1.63-1.79a2.43,2.43,0,0,0-1.42-.63c-3.36-.28-7.15-3.43-9.71-5.76-1.52-1.4-3-2.9-4.49-4.36s-2.73-2.73-4-3.92c-2.52-2.29-4.41-3.57-6.14-4.13-6-2-9.28.09-11.21,1.33a5.56,5.56,0,0,1-1.22.67c-.6.13-1.17.3-1.71.47a7.74,7.74,0,0,1-6.63-.36c-3.1-1.43-8.44-.34-16.9,1.56-5.52,1.24-12.39,2.78-15.07,2a4.89,4.89,0,0,1-2-1.13c-2.51-2.3-3.21-7-3.29-8.32.15-.82-.27-1.9-3.72-7a51.94,51.94,0,0,0-7.1-8.78c-1.83-1.67-3.38-2.48-4.89-2.53a43.8,43.8,0,0,0-16.2,2.79l-.07,0c-4.54,1.66-13,4.75-23.47-4.84a53.06,53.06,0,0,1-7.82-9.26,50.77,50.77,0,0,0-7.61-8.77,56.42,56.42,0,0,0-16.8-10.46,2.41,2.41,0,0,0-3.22,1.49l-15.59,47.76c-.63,1.75-11.19,32,3.77,45.62a21.82,21.82,0,0,0,5.88,3.82,699.57,699.57,0,0,0,65.62,24.82,697.27,697.27,0,0,0,67.62,18.68c24.94,5.4,36.35-32.11,37-34.21l11.12-34.06a2.41,2.41,0,0,0-.28-2.09,2.11,2.11,0,0,0-.39-.45Z"/><path class="cls-13" d="M142.44,350.55a53.25,53.25,0,0,0-17.91-11.77l-15.6,47.79s-.77,2.13-1.63,5.46c6.77,2.37,16.47,2.21,25.18-11.21C145,361.56,139.06,360,142.44,350.55Z"/><path class="cls-14" d="M155.43,568.82a14.31,14.31,0,0,1-4-15L181,463.48a.68.68,0,0,1,.86-.44l25.9,8.46a.77.77,0,0,1,.25.14.75.75,0,0,1,.15.2.69.69,0,0,1,0,.51l-29.5,90.35a14.32,14.32,0,0,1-18,9.15,14,14,0,0,1-5.2-3Z"/><path class="cls-15" d="M207.52,472.14,178,562.48a13.62,13.62,0,0,1-17.18,8.73,13.45,13.45,0,0,1-5-2.89A13.63,13.63,0,0,1,152.12,554l29.5-90.34,25.9,8.45m.92-1a1.32,1.32,0,0,0-.5-.29L182,462.39a1.37,1.37,0,0,0-1.72.88l-29.49,90.34a15,15,0,0,0,28.49,9.3l29.5-90.34a1.34,1.34,0,0,0-.09-1,1.24,1.24,0,0,0-.29-.39Z"/><path class="cls-16" d="M154.27,566.54a14.34,14.34,0,0,1-4-15l28.94-88.62a.64.64,0,0,1,.33-.39.68.68,0,0,1,.52,0l25.9,8.45a.58.58,0,0,1,.25.15.69.69,0,0,1,.19.71L177.5,560.41a14.3,14.3,0,0,1-23.23,6.13Z"/><path class="cls-17" d="M205.79,471.58l-28.93,88.61a13.63,13.63,0,0,1-17.18,8.73,13.45,13.45,0,0,1-5-2.89A13.61,13.61,0,0,1,151,551.74l28.93-88.62,25.9,8.46m.92-1a1.44,1.44,0,0,0-.5-.28l-25.89-8.46a1.39,1.39,0,0,0-1,.08,1.33,1.33,0,0,0-.68.79l-28.94,88.62A15,15,0,0,0,153.81,567a14.64,14.64,0,0,0,5.45,3.17,15,15,0,0,0,18.89-9.59L207.09,472a1.38,1.38,0,0,0-.38-1.43Z"/><g class="cls-18"><path class="cls-15" d="M198,469l-26.21,80.28a13.6,13.6,0,0,1-21.52,6.35,13.62,13.62,0,0,0,26.57,4.52l28.93-88.61Z"/></g><g class="cls-18"><path class="cls-15" d="M202.55,470.52l-27.86,85.33a13.6,13.6,0,0,1-23.85,3.92,13.61,13.61,0,0,0,26,.42l28.93-88.61Z"/></g><path class="cls-19" d="M179.89,463.12,169.16,496c6.14,5.27,15.19,12.81,22.7,18.26l13.93-42.67Z"/><g class="cls-20"><path class="cls-21" d="M113.23,440.75c-19.78-18.07-8-47.18-7.49-48.41l99.18-229.48c15.6-47.64,58.35-87.2,109.93-70.71a118.78,118.78,0,0,1,42.09,24.93c31.82,29.07,42.36,68.25,28.2,104.83l-76.93,235.6c-.45,1.55-11.91,39.81-37.21,34.32a694.75,694.75,0,0,1-67.65-18.69c-8.87-2.89-19.35-5.93-29.48-8.88-21-6.11-42.71-12.42-53-18.11a39.55,39.55,0,0,1-7.6-5.39Z"/><path class="cls-22" d="M355.16,119c27.15,24.8,42.8,62.54,27.49,102L305.7,456.69s-10.95,37.59-34.14,32.57a697.65,697.65,0,0,1-67.39-18.63c-27.11-8.82-67-18.52-82.07-26.79a36.78,36.78,0,0,1-7.09-5c-18.64-17-6.83-45.44-6.83-45.44l99.21-229.57c15.84-48.52,58.11-84.64,106.66-69.12A116.06,116.06,0,0,1,355.16,119m3.56-3.9a121.31,121.31,0,0,0-43-25.47c-24.52-7.84-48.81-3.94-70.31,11.25-19.26,13.6-34.51,35.26-43,61L103.34,391.26l0,.07c-.54,1.3-13,32.07,8.14,51.37a42.2,42.2,0,0,0,8.11,5.76c10.59,5.83,31.47,11.9,53.57,18.33,10.11,2.95,20.57,6,29.41,8.86a696,696,0,0,0,67.9,18.76c27.31,5.92,39.5-33.45,40.3-36.15l76.88-235.47A90.34,90.34,0,0,0,389.87,163c-5.45-17.66-16.22-34.2-31.15-47.84Z"/><path class="cls-21" d="M113.23,440.75c-19.78-18.07-8-47.18-7.49-48.41L111.93,378a2.63,2.63,0,0,1,3.18-1.48l82.52,24.77L295,409.41a2.65,2.65,0,0,1,1.56.68,2.68,2.68,0,0,1,.85,1.77,8,8,0,0,0,2.08,4.65c1.49,1.36,3.84,1.53,7,.51a28.36,28.36,0,0,1,11.91-1,2.73,2.73,0,0,1,1.48.68,2.81,2.81,0,0,1,.44.52,2.61,2.61,0,0,1,.28,2.24l-12.42,38.06c-.45,1.55-11.91,39.81-37.21,34.32a694.75,694.75,0,0,1-67.65-18.69c-8.87-2.89-19.35-5.93-29.48-8.88-21-6.11-42.71-12.42-53-18.11a39.55,39.55,0,0,1-7.6-5.39Z"/><path class="cls-22" d="M318.13,418.63,305.7,456.69s-10.95,37.59-34.14,32.57a697.65,697.65,0,0,1-67.39-18.63c-27.11-8.82-67-18.52-82.07-26.79a36.78,36.78,0,0,1-7.09-5c-18.64-17-6.83-45.44-6.83-45.44l6.17-14.28,82.78,24.85L294.82,412a10.57,10.57,0,0,0,2.94,6.42c1.83,1.67,4.79,2.62,9.57,1.07a25.88,25.88,0,0,1,10.8-.9m3.56-3.89a5.35,5.35,0,0,0-3-1.35,31.17,31.17,0,0,0-13,1.12c-1.22.4-3.42.93-4.38.05a5.3,5.3,0,0,1-1.24-2.94,4.94,4.94,0,0,0-1.6-3.47,5.49,5.49,0,0,0-3.23-1.37l-97.13-8.06L115.87,374a5.27,5.27,0,0,0-6.36,3l-6.17,14.28,0,.07c-.54,1.3-13,32.07,8.14,51.37a42.2,42.2,0,0,0,8.11,5.76c10.59,5.83,31.47,11.9,53.57,18.33,10.11,2.95,20.57,6,29.41,8.86a696,696,0,0,0,67.9,18.76c27.32,5.92,39.5-33.46,40.3-36.15l12.4-38a5.28,5.28,0,0,0-.57-4.49,5.51,5.51,0,0,0-.88-1Z"/><path class="cls-21" d="M110.63,431.19c-15.19-13.87-4.29-44.59-3.81-45.9L183.74,149.7A94.83,94.83,0,1,1,364,208.57L287.07,444.24c-.45,1.55-11.91,39.81-37.22,34.32a695.92,695.92,0,0,1-67.64-18.69,700.64,700.64,0,0,1-65.64-24.82,22.19,22.19,0,0,1-5.94-3.86Z"/><path class="cls-22" d="M335.87,110.43a92.75,92.75,0,0,1,25.64,97.32L284.56,443.42S273.61,481,250.41,476A694.16,694.16,0,0,1,183,457.36a693.6,693.6,0,0,1-65.38-24.73,18.93,18.93,0,0,1-5.24-3.39c-14.06-12.84-3.11-43.05-3.11-43.05l77-235.67a91.86,91.86,0,0,1,149.62-40.09m3.56-3.9a97.6,97.6,0,0,0-158.2,42.35L104.3,384.48c-.82,2.3-11.67,33.85,4.55,48.66a24.81,24.81,0,0,0,6.65,4.32,698.36,698.36,0,0,0,65.9,24.92,699.39,699.39,0,0,0,67.89,18.76c27.33,5.92,39.51-33.47,40.31-36.16l76.93-235.6a98.27,98.27,0,0,0-27.1-102.85Z"/><path class="cls-23" d="M249.92,361.64a9.67,9.67,0,0,1-12.17,6.18h0a9.66,9.66,0,0,1-6.18-12.17L299.24,148.4a9.66,9.66,0,0,1,12.17-6.18h0a9.65,9.65,0,0,1,6.18,12.17Z"/><path class="cls-23" d="M191.91,342.7a9.67,9.67,0,0,1-12.17,6.18h0a9.66,9.66,0,0,1-6.18-12.17l67.67-207.25a9.64,9.64,0,0,1,12.17-6.18h0a9.65,9.65,0,0,1,6.18,12.17Z"/><path class="cls-21" d="M110.63,431.19c-15.19-13.87-4.29-44.59-3.81-45.9l15.57-47.71a2.68,2.68,0,0,1,1.4-1.57,2.63,2.63,0,0,1,2.11-.05,56.68,56.68,0,0,1,16.87,10.5,50.83,50.83,0,0,1,7.64,8.81,53,53,0,0,0,7.78,9.22c10.41,9.51,18.76,6.44,23.25,4.8a44.12,44.12,0,0,1,16.36-2.84c1.56.06,3.16.88,5,2.59a52.8,52.8,0,0,1,7.13,8.82c3.51,5.2,3.94,6.26,3.76,7.17.09,1.37.79,5.91,3.21,8.13a4.78,4.78,0,0,0,1.92,1.08c2.63.73,9.46-.81,15-2,8.5-1.91,13.88-3,17-1.55a7.52,7.52,0,0,0,6.47.35c.6-.18,1.17-.35,1.73-.47a6.55,6.55,0,0,0,1.15-.64c2-1.26,5.26-3.37,11.4-1.36,1.76.58,3.68,1.87,6.21,4.18,1.31,1.19,2.64,2.52,4,3.93s3,3,4.49,4.35c2.53,2.31,6.29,5.43,9.57,5.71a2.61,2.61,0,0,1,1.56.68,2.47,2.47,0,0,1,.42.49,2.63,2.63,0,0,1,.31,2.28l-11.13,34.09c-.45,1.55-11.91,39.81-37.22,34.32a695.92,695.92,0,0,1-67.64-18.69,700.64,700.64,0,0,1-65.64-24.82,22.19,22.19,0,0,1-5.94-3.86Z"/><path class="cls-22" d="M295.69,409.33l-11.13,34.09S273.61,481,250.41,476A694.16,694.16,0,0,1,183,457.36a693.6,693.6,0,0,1-65.38-24.73,18.93,18.93,0,0,1-5.24-3.39c-14.06-12.84-3.11-43.05-3.11-43.05l15.6-47.79a54,54,0,0,1,16.09,10,47.83,47.83,0,0,1,7.24,8.35,54.6,54.6,0,0,0,8.18,9.68c11.65,10.64,21.52,6.95,26,5.3a40.93,40.93,0,0,1,15.28-2.65,6.09,6.09,0,0,1,3.35,1.9c4.52,4.13,10.07,13.55,10,13.71s.31,7,4.08,10.41a7.37,7.37,0,0,0,3,1.67c6.58,1.83,26.62-6,31.6-3.73s7.45.56,9.85.07,4.28-4.34,11.19-2.08a16.37,16.37,0,0,1,5.25,3.62c2.62,2.39,5.51,5.52,8.53,8.27,3.62,3.31,7.42,6.08,11.13,6.4m3.56-3.9a5.25,5.25,0,0,0-3.11-1.36c-1.84-.16-4.54-1.85-8-5-1.48-1.35-3-2.83-4.4-4.27s-2.78-2.78-4.13-4c-2.86-2.61-5-4-7.17-4.74-7.33-2.39-11.44.23-13.64,1.64-.18.12-.41.27-.56.35-.62.15-1.18.32-1.68.47a5,5,0,0,1-4.59-.22c-3.93-1.82-9.67-.67-18.72,1.36-4.37,1-11.68,2.63-13.67,2.07a2,2,0,0,1-.85-.48c-1.41-1.29-2.18-4.43-2.34-6.1.21-1.92-.86-3.74-4.22-8.72a52.8,52.8,0,0,0-7.54-9.3c-2.36-2.15-4.49-3.19-6.71-3.28a46.3,46.3,0,0,0-17.29,3l-.08,0c-4.24,1.56-11.34,4.16-20.56-4.27a50.42,50.42,0,0,1-7.38-8.75,53,53,0,0,0-8-9.27,59,59,0,0,0-17.66-11,5.27,5.27,0,0,0-7,3.24L104.3,384.48c-.81,2.29-11.67,33.84,4.55,48.66a24.81,24.81,0,0,0,6.65,4.32,698.36,698.36,0,0,0,65.9,24.92,699.39,699.39,0,0,0,67.89,18.76c27.32,5.92,39.51-33.45,40.31-36.15l11.11-34a5.27,5.27,0,0,0-1.46-5.53Z"/><path class="cls-21" d="M154.48,569.89a16.3,16.3,0,0,1-4.5-17.06l29.5-90.34a2.64,2.64,0,0,1,3.33-1.69l25.9,8.46a2.58,2.58,0,0,1,1,.56,2.49,2.49,0,0,1,.57.75,2.65,2.65,0,0,1,.16,2l-29.5,90.34a16.27,16.27,0,0,1-26.42,7Z"/><path class="cls-22" d="M207.89,471.76l-29.5,90.35a13.62,13.62,0,0,1-17.18,8.72,13.45,13.45,0,0,1-5-2.89,13.63,13.63,0,0,1-3.77-14.29L182,463.31l25.9,8.45m3.56-3.89a5.22,5.22,0,0,0-1.92-1.12l-25.9-8.46a5.29,5.29,0,0,0-6.66,3.38L147.47,552a18.9,18.9,0,0,0,35.94,11.73l29.5-90.34a5.25,5.25,0,0,0-.32-4,5.18,5.18,0,0,0-1.14-1.51Z"/><path class="cls-21" d="M153.31,567.6a16.31,16.31,0,0,1-4.49-17.06l28.93-88.61a2.63,2.63,0,0,1,3.33-1.69l25.9,8.45a2.7,2.7,0,0,1,1,.56,2.65,2.65,0,0,1,.73,2.77l-28.94,88.61a16.24,16.24,0,0,1-26.41,7Z"/><path class="cls-22" d="M206.16,471.2l-28.93,88.61a13.63,13.63,0,0,1-17.18,8.73,13.45,13.45,0,0,1-5-2.89,13.61,13.61,0,0,1-3.77-14.29l28.93-88.62,25.9,8.46m3.56-3.9a5.18,5.18,0,0,0-1.92-1.11l-25.9-8.46a5.26,5.26,0,0,0-6.65,3.38l-28.94,88.61a18.93,18.93,0,0,0,5.23,19.83,18.9,18.9,0,0,0,30.7-8.1l28.94-88.61a5.3,5.3,0,0,0-1.46-5.54Z"/></g><polygon points="142 170 408.66 245.98 400.82 272.75 384.68 268.62 380.37 281.52 366.11 277 362.56 288.89 350.04 284.96 345.86 298.49 274.33 274.97 259.67 235.41 244.47 229.98 201.21 253.99 148 236.84 152 223.31 140 219.8 143.44 207.39 130.93 203.62 134.87 191.64 123.92 188.38 131.07 166.86 142 170"/><rect class="cls-24" x="271.36" y="237.23" width="8.99" height="8.99" transform="translate(79.55 -68.1) rotate(16.41)"/><rect class="cls-24" x="277.44" y="248.39" width="8.99" height="8.99" transform="matrix(0.96, 0.28, -0.28, 0.96, 82.95, -69.36)"/><rect class="cls-24" x="283.52" y="259.56" width="8.99" height="8.99" transform="matrix(0.96, 0.28, -0.28, 0.96, 86.35, -70.62)"/><rect class="cls-24" x="288.6" y="242.31" width="8.99" height="8.99" transform="translate(81.69 -72.76) rotate(16.41)"/><rect class="cls-24" x="294.68" y="253.47" width="8.99" height="8.99" transform="translate(85.09 -74.03) rotate(16.41)"/><rect class="cls-24" x="300.77" y="264.64" width="8.99" height="8.99" transform="translate(88.49 -75.29) rotate(16.41)"/><rect class="cls-24" x="152.84" y="200.21" width="8.99" height="8.99" transform="matrix(0.96, 0.28, -0.28, 0.96, 64.25, -36.11)"/><rect class="cls-24" x="158.92" y="211.37" width="8.99" height="8.99" transform="translate(67.66 -37.38) rotate(16.41)"/><rect class="cls-24" x="165" y="222.53" width="8.99" height="8.99" transform="matrix(0.96, 0.28, -0.28, 0.96, 71.06, -38.64)"/><rect class="cls-24" x="170.08" y="205.29" width="8.99" height="8.99" transform="translate(66.39 -40.78) rotate(16.41)"/><rect class="cls-24" x="176.16" y="216.45" width="8.99" height="8.99" transform="translate(69.79 -42.04) rotate(16.41)"/><rect class="cls-24" x="182.25" y="227.61" width="8.99" height="8.99" transform="translate(73.2 -43.31) rotate(16.41)"/></g></g></svg>