<svg width="600" height="600" viewBox="0 0 600 600" fill="none" xmlns="http://www.w3.org/2000/svg">
<g id="pa11y">
<g id="colorblind-a11y-01 1">
<g id="popsicle">
<g id="shadow">
<path id="Vector" opacity="0.1" d="M308.426 511.784C297.724 511.784 285.902 510.477 280.344 508.682L246.109 497.602L204.099 498.931C202.093 498.997 199.994 499.026 197.85 499.026C186.349 499.02 174.863 498.204 163.477 496.585C148.909 495.858 135.366 493.984 128.216 491.673L21.0703 457.009C10.0483 453.441 4.72264 449.801 5.23123 446.176C6.68436 436.004 53.7002 433.722 68.0789 433.265C74.4363 433.061 81.1134 432.96 87.9213 432.96C116.68 433.009 145.416 434.603 174.004 437.733C210.645 440.727 242.12 445.769 260.306 451.625L365.875 485.773C369.769 487.03 371.491 488.295 371.288 489.74C370.801 493.141 358.094 494.042 350.566 494.281L289.848 496.2L321.017 506.284C322.645 506.807 324.497 507.578 324.316 508.856C324.083 510.498 319.956 511.457 312.131 511.704C310.969 511.763 309.697 511.784 308.426 511.784Z" fill="black"/>
</g>
<g id="Exclude">
<path fill-rule="evenodd" clip-rule="evenodd" d="M295.589 97.9198C321.385 97.9453 346.213 107.745 365.073 125.345C374.24 133.901 381.666 143.99 387.085 155.057C387.043 154.971 387 154.886 386.957 154.801C380.978 142.816 372.696 132.126 362.584 123.342C352.473 114.558 340.731 107.852 328.028 103.606C315.325 99.3605 301.91 97.6585 288.549 98.5975C260.83 100.547 235.021 113.428 216.799 134.407C198.576 155.385 189.434 182.743 191.382 210.462L204.128 391.837C204.741 400.554 208.791 408.671 215.389 414.402C221.986 420.133 230.59 423.008 239.307 422.396L379.819 412.521L379.818 412.514C384.993 412.15 389.955 410.575 394.333 407.975C391.895 413.13 388.157 417.569 383.483 420.851C378.578 424.295 372.827 426.336 366.849 426.755L326.445 429.596L330.586 488.607C330.766 491.159 330.441 493.722 329.63 496.148C328.819 498.574 327.538 500.817 325.86 502.749C324.182 504.68 322.14 506.261 319.85 507.403C317.561 508.544 315.069 509.223 312.516 509.401C312.066 509.438 311.615 509.452 311.172 509.452C306.377 509.444 301.763 507.619 298.258 504.346C294.753 501.074 292.618 496.595 292.282 491.811L288.104 432.284L226.346 436.643C225.561 436.701 224.777 436.723 224.006 436.723C215.671 436.716 207.649 433.55 201.555 427.863C195.461 422.177 191.748 414.392 191.166 406.077L178.429 224.683C177.335 209.323 179.647 193.911 185.201 179.549C190.755 165.186 199.414 152.228 210.558 141.601C219.524 129.08 231.147 118.694 244.594 111.187C258.04 103.68 272.98 99.2365 288.344 98.1741C290.764 98.0002 293.176 97.9203 295.589 97.9198ZM394.333 407.975C397.331 406.195 400.054 403.935 402.383 401.253C408.114 394.656 410.99 386.052 410.377 377.335L397.436 193.192C396.505 179.926 392.988 166.971 387.085 155.057C392.814 166.756 396.299 179.548 397.226 192.773L410.152 376.92C410.573 382.898 409.355 388.878 406.629 394.216C403.903 399.553 399.773 404.046 394.683 407.21C394.57 407.467 394.453 407.722 394.333 407.975ZM295.595 95.1734C293.13 95.1738 290.635 95.2609 288.169 95.435C272.443 96.5186 257.149 101.055 243.375 108.722C229.602 116.388 217.687 126.997 208.48 139.792C197.098 150.693 188.258 163.97 182.591 178.677C176.923 193.383 174.567 209.159 175.69 224.879L188.419 406.251C189.075 415.254 193.108 423.676 199.709 429.832C206.311 435.988 214.995 439.422 224.021 439.448C224.857 439.448 225.714 439.448 226.557 439.361L285.568 435.219L289.557 492.007C289.961 497.478 292.413 502.595 296.424 506.338C300.434 510.08 305.708 512.173 311.194 512.198C311.703 512.198 312.218 512.198 312.734 512.14C315.646 511.937 318.489 511.161 321.101 509.858C323.714 508.555 326.043 506.75 327.957 504.547C329.872 502.343 331.333 499.784 332.258 497.015C333.182 494.246 333.553 491.323 333.347 488.411L329.402 432.139L367.067 429.494C373.401 429.057 379.503 426.935 384.741 423.346C389.978 419.758 394.161 414.834 396.856 409.085C402.172 405.61 406.463 400.778 409.284 395.088C412.106 389.399 413.356 383.059 412.905 376.724L399.965 192.576C398.109 166.152 386.311 141.413 366.945 123.339C347.579 105.266 322.084 95.2023 295.595 95.1734ZM311.172 510.825C306.036 510.808 301.096 508.853 297.339 505.35C293.582 501.848 291.285 497.057 290.908 491.935L286.825 433.773L226.433 438.009C225.627 438.067 224.806 438.096 223.999 438.096C215.325 438.066 206.981 434.761 200.639 428.843C194.296 422.925 190.423 414.83 189.793 406.178L177.056 224.785C175.949 209.243 178.284 193.649 183.895 179.113C189.507 164.577 198.256 151.459 209.519 140.693C218.605 128.037 230.371 117.542 243.979 109.955C257.586 102.369 272.7 97.877 288.242 96.8009C290.683 96.6338 293.153 96.5466 295.587 96.5466C321.73 96.5725 346.892 106.504 366.005 124.34C385.118 142.176 396.762 166.592 398.592 192.671L411.518 376.789C411.958 382.946 410.727 389.107 407.954 394.622C405.182 400.137 400.97 404.8 395.766 408.118C393.207 413.735 389.179 418.556 384.107 422.073C379.035 425.59 373.107 427.672 366.95 428.099L327.912 430.838L331.959 488.476C332.345 493.993 330.524 499.438 326.897 503.614C323.271 507.789 318.135 510.354 312.618 510.745C312.138 510.803 311.652 510.825 311.172 510.825Z" fill="black" fill-opacity="0.3"/>
<path d="M365.073 125.345L365.717 124.654L365.717 124.654L365.073 125.345ZM295.589 97.9198L295.59 96.9748L295.589 96.9748L295.589 97.9198ZM386.957 154.801L387.803 154.379L387.803 154.379L386.957 154.801ZM362.584 123.342L363.204 122.629L363.204 122.629L362.584 123.342ZM328.028 103.606L328.327 102.71L328.327 102.71L328.028 103.606ZM288.549 98.5975L288.483 97.6548L288.483 97.6548L288.549 98.5975ZM216.799 134.407L216.085 133.787L216.085 133.787L216.799 134.407ZM191.382 210.462L190.439 210.528L191.382 210.462ZM204.128 391.837L205.071 391.771L205.071 391.771L204.128 391.837ZM215.389 414.402L214.769 415.116L214.769 415.116L215.389 414.402ZM239.307 422.396L239.373 423.338L239.373 423.338L239.307 422.396ZM379.819 412.521L379.885 413.464L380.829 413.397L380.762 412.454L379.819 412.521ZM379.818 412.514L379.752 411.571L378.808 411.637L378.876 412.581L379.818 412.514ZM383.483 420.851L384.026 421.625L384.026 421.625L383.483 420.851ZM366.849 426.755L366.783 425.812L366.782 425.812L366.849 426.755ZM326.445 429.596L326.378 428.653L325.436 428.719L325.502 429.662L326.445 429.596ZM330.586 488.607L329.643 488.673L329.643 488.673L330.586 488.607ZM329.63 496.148L330.527 496.448L330.527 496.448L329.63 496.148ZM325.86 502.749L326.573 503.368L326.573 503.368L325.86 502.749ZM319.85 507.403L320.272 508.248L320.272 508.248L319.85 507.403ZM312.516 509.401L312.451 508.458L312.44 508.459L312.516 509.401ZM311.172 509.452L311.171 510.397H311.172V509.452ZM298.258 504.346L297.613 505.037L297.613 505.037L298.258 504.346ZM292.282 491.811L291.339 491.877L291.339 491.877L292.282 491.811ZM288.104 432.284L289.046 432.218L288.98 431.275L288.037 431.341L288.104 432.284ZM226.346 436.643L226.279 435.701L226.276 435.701L226.346 436.643ZM224.006 436.723L224.006 437.668H224.006V436.723ZM201.555 427.863L200.91 428.554L200.91 428.554L201.555 427.863ZM191.166 406.077L192.109 406.011L192.109 406.011L191.166 406.077ZM178.429 224.683L179.372 224.617L179.372 224.616L178.429 224.683ZM185.201 179.549L184.32 179.208L184.32 179.208L185.201 179.549ZM210.558 141.601L211.21 142.285L211.274 142.223L211.326 142.151L210.558 141.601ZM244.594 111.187L245.054 112.012L245.054 112.012L244.594 111.187ZM288.344 98.1741L288.409 99.1169L288.411 99.1167L288.344 98.1741ZM402.383 401.253L401.67 400.634L401.67 400.634L402.383 401.253ZM410.377 377.335L411.32 377.269L411.32 377.269L410.377 377.335ZM397.436 193.192L396.493 193.258L396.493 193.258L397.436 193.192ZM397.226 192.773L396.284 192.839L396.284 192.839L397.226 192.773ZM410.152 376.92L409.209 376.986L409.209 376.986L410.152 376.92ZM394.683 407.21L394.184 406.408L393.937 406.562L393.819 406.828L394.683 407.21ZM288.169 95.435L288.234 96.3778L288.236 96.3776L288.169 95.435ZM295.595 95.1734L295.597 94.2284L295.595 94.2284L295.595 95.1734ZM243.375 108.722L242.916 107.896L242.916 107.896L243.375 108.722ZM208.48 139.792L209.133 140.474L209.196 140.414L209.247 140.344L208.48 139.792ZM182.591 178.677L181.709 178.337L181.709 178.337L182.591 178.677ZM175.69 224.879L176.633 224.813L176.633 224.812L175.69 224.879ZM188.419 406.251L187.477 406.317L187.477 406.32L188.419 406.251ZM199.709 429.832L199.065 430.523L199.065 430.523L199.709 429.832ZM224.021 439.448L224.018 440.393H224.021V439.448ZM226.557 439.361L226.491 438.418L226.475 438.419L226.459 438.421L226.557 439.361ZM285.568 435.219L286.511 435.153L286.445 434.21L285.502 434.277L285.568 435.219ZM289.557 492.007L288.614 492.074L288.614 492.077L289.557 492.007ZM296.424 506.338L297.068 505.647L297.068 505.647L296.424 506.338ZM311.194 512.198L311.19 513.143H311.194V512.198ZM312.734 512.14L312.668 511.198L312.648 511.199L312.628 511.201L312.734 512.14ZM321.101 509.858L320.68 509.013L320.68 509.013L321.101 509.858ZM327.957 504.547L328.671 505.166L328.671 505.166L327.957 504.547ZM332.258 497.015L333.154 497.314L333.154 497.314L332.258 497.015ZM333.347 488.411L332.404 488.477L332.404 488.477L333.347 488.411ZM329.402 432.139L329.335 431.196L328.393 431.262L328.459 432.205L329.402 432.139ZM367.067 429.494L367.002 428.551L367 428.551L367.067 429.494ZM384.741 423.346L385.275 424.126L385.275 424.126L384.741 423.346ZM396.856 409.085L396.339 408.294L396.114 408.441L396 408.684L396.856 409.085ZM409.284 395.088L408.438 394.668L408.438 394.668L409.284 395.088ZM412.905 376.724L411.963 376.79L411.963 376.791L412.905 376.724ZM399.965 192.576L399.023 192.643L399.023 192.643L399.965 192.576ZM366.945 123.339L367.589 122.649L367.589 122.649L366.945 123.339ZM297.339 505.35L297.983 504.659L297.983 504.659L297.339 505.35ZM311.172 510.825L311.169 511.77H311.172V510.825ZM290.908 491.935L289.966 492.001L289.966 492.004L290.908 491.935ZM286.825 433.773L287.768 433.707L287.702 432.765L286.759 432.831L286.825 433.773ZM226.433 438.009L226.367 437.066L226.365 437.067L226.433 438.009ZM223.999 438.096L223.996 439.041H223.999V438.096ZM200.639 428.843L201.283 428.152L201.283 428.152L200.639 428.843ZM189.793 406.178L188.85 406.245L188.85 406.247L189.793 406.178ZM177.056 224.785L177.999 224.719L177.999 224.718L177.056 224.785ZM183.895 179.113L183.014 178.773L183.014 178.773L183.895 179.113ZM209.519 140.693L210.172 141.376L210.235 141.315L210.286 141.244L209.519 140.693ZM243.979 109.955L244.439 110.781L244.439 110.781L243.979 109.955ZM288.242 96.8009L288.177 95.8581L288.177 95.8582L288.242 96.8009ZM295.587 96.5466L295.588 95.6016H295.587V96.5466ZM398.592 192.671L397.649 192.737L397.649 192.737L398.592 192.671ZM411.518 376.789L410.575 376.855L410.575 376.856L411.518 376.789ZM407.954 394.622L407.11 394.197L407.11 394.197L407.954 394.622ZM395.766 408.118L395.258 407.322L395.022 407.472L394.906 407.727L395.766 408.118ZM384.107 422.073L384.645 422.849L384.645 422.849L384.107 422.073ZM366.95 428.099L366.885 427.156L366.884 427.156L366.95 428.099ZM327.912 430.838L327.846 429.895L326.903 429.961L326.969 430.904L327.912 430.838ZM331.959 488.476L332.902 488.41L332.902 488.41L331.959 488.476ZM326.897 503.614L326.184 502.994L326.184 502.994L326.897 503.614ZM312.618 510.745L312.551 509.803L312.528 509.804L312.504 509.807L312.618 510.745ZM365.717 124.654C346.683 106.891 321.625 97.0006 295.59 96.9748L295.588 98.8648C321.145 98.8901 345.743 108.599 364.428 126.036L365.717 124.654ZM387.934 154.641C382.465 143.472 374.97 133.289 365.717 124.654L364.428 126.036C373.51 134.512 380.868 144.508 386.236 155.472L387.934 154.641ZM386.112 155.222C386.154 155.307 386.196 155.392 386.238 155.476L387.932 154.637C387.889 154.551 387.846 154.465 387.803 154.379L386.112 155.222ZM361.965 124.056C371.982 132.758 380.187 143.349 386.112 155.222L387.803 154.379C381.768 142.283 373.409 131.494 363.204 122.629L361.965 124.056ZM327.728 104.502C340.314 108.709 351.947 115.353 361.965 124.056L363.204 122.629C352.999 113.763 341.148 106.995 328.327 102.71L327.728 104.502ZM288.615 99.5402C301.852 98.6099 315.143 100.296 327.728 104.502L328.327 102.71C315.507 98.4249 301.967 96.7072 288.483 97.6548L288.615 99.5402ZM217.512 135.027C235.57 114.237 261.146 101.473 288.615 99.5402L288.483 97.6548C260.514 99.6224 234.472 112.619 216.085 133.787L217.512 135.027ZM192.324 210.396C190.394 182.927 199.454 155.816 217.512 135.027L216.085 133.787C197.699 154.955 188.473 182.559 190.439 210.528L192.324 210.396ZM205.071 391.771L192.324 210.396L190.439 210.528L203.186 391.903L205.071 391.771ZM216.008 413.689C209.6 408.122 205.666 400.238 205.071 391.771L203.186 391.903C203.816 400.871 207.982 409.22 214.769 415.116L216.008 413.689ZM239.241 421.453C230.773 422.048 222.416 419.255 216.008 413.689L214.769 415.116C221.555 421.011 230.406 423.969 239.373 423.338L239.241 421.453ZM379.753 411.578L239.241 421.453L239.373 423.338L379.885 413.464L379.753 411.578ZM378.876 412.581L378.876 412.588L380.762 412.454L380.761 412.446L378.876 412.581ZM393.851 407.163C389.598 409.688 384.778 411.218 379.752 411.571L379.885 413.456C385.207 413.082 390.312 411.462 394.816 408.788L393.851 407.163ZM384.026 421.625C388.835 418.248 392.679 413.682 395.187 408.38L393.479 407.571C391.11 412.578 387.48 416.89 382.94 420.078L384.026 421.625ZM366.915 427.697C373.064 427.267 378.98 425.167 384.026 421.625L382.94 420.078C378.176 423.423 372.59 425.406 366.783 425.812L366.915 427.697ZM326.511 430.538L366.915 427.697L366.782 425.812L326.378 428.653L326.511 430.538ZM331.529 488.541L327.387 429.529L325.502 429.662L329.643 488.673L331.529 488.541ZM330.527 496.448C331.377 493.903 331.717 491.216 331.529 488.541L329.643 488.673C329.814 491.102 329.505 493.54 328.734 495.848L330.527 496.448ZM326.573 503.368C328.333 501.344 329.676 498.992 330.527 496.448L328.734 495.848C327.962 498.157 326.744 500.291 325.147 502.129L326.573 503.368ZM320.272 508.248C322.673 507.051 324.814 505.393 326.573 503.368L325.147 502.129C323.55 503.966 321.607 505.471 319.429 506.557L320.272 508.248ZM312.582 510.344C315.258 510.157 317.871 509.445 320.272 508.248L319.429 506.557C317.25 507.643 314.879 508.289 312.451 508.459L312.582 510.344ZM311.172 510.397C311.636 510.397 312.112 510.382 312.592 510.343L312.44 508.459C312.02 508.493 311.595 508.507 311.172 508.507V510.397ZM297.613 505.037C301.292 508.473 306.136 510.388 311.171 510.397L311.174 508.507C306.617 508.499 302.233 506.766 298.903 503.656L297.613 505.037ZM291.339 491.877C291.692 496.899 293.933 501.601 297.613 505.037L298.903 503.656C295.572 500.546 293.544 496.29 293.224 491.745L291.339 491.877ZM287.161 432.35L291.339 491.877L293.224 491.745L289.046 432.218L287.161 432.35ZM226.413 437.586L288.17 433.227L288.037 431.341L226.279 435.701L226.413 437.586ZM224.006 437.668C224.794 437.668 225.603 437.646 226.416 437.586L226.276 435.701C225.52 435.757 224.759 435.778 224.006 435.778V437.668ZM200.91 428.554C207.179 434.404 215.431 437.661 224.006 437.668L224.007 435.778C215.911 435.771 208.119 432.696 202.199 427.172L200.91 428.554ZM190.223 406.143C190.822 414.696 194.641 422.704 200.91 428.554L202.199 427.172C196.28 421.649 192.674 414.087 192.109 406.011L190.223 406.143ZM177.487 224.749L190.223 406.143L192.109 406.011L179.372 224.617L177.487 224.749ZM184.32 179.208C178.716 193.7 176.382 209.251 177.487 224.75L179.372 224.616C178.287 209.395 180.579 194.122 186.083 179.889L184.32 179.208ZM209.906 140.917C198.661 151.64 189.924 164.715 184.32 179.208L186.083 179.889C191.586 165.657 200.167 152.816 211.21 142.285L209.906 140.917ZM244.133 110.362C230.564 117.937 218.837 128.416 209.789 141.051L211.326 142.151C220.212 129.743 231.729 119.452 245.054 112.012L244.133 110.362ZM288.278 97.2314C272.776 98.3034 257.701 102.787 244.133 110.362L245.054 112.012C258.379 104.573 273.184 100.17 288.409 99.1169L288.278 97.2314ZM295.589 96.9748C293.155 96.9753 290.72 97.0559 288.276 97.2316L288.411 99.1167C290.807 98.9445 293.197 98.8653 295.589 98.8648L295.589 96.9748ZM401.67 400.634C399.408 403.238 396.762 405.434 393.851 407.163L394.816 408.788C397.899 406.957 400.701 404.631 403.097 401.873L401.67 400.634ZM409.434 377.401C410.029 385.869 407.237 394.226 401.67 400.634L403.097 401.873C408.992 395.087 411.95 386.236 411.32 377.269L409.434 377.401ZM396.493 193.258L409.434 377.401L411.32 377.269L398.379 193.125L396.493 193.258ZM386.238 155.476C392.086 167.28 395.57 180.115 396.493 193.258L398.379 193.125C397.439 179.737 393.889 166.662 387.932 154.637L386.238 155.476ZM398.169 192.706C397.233 179.359 393.715 166.449 387.934 154.641L386.236 155.472C391.912 167.064 395.365 179.737 396.284 192.839L398.169 192.706ZM411.094 376.854L398.169 192.706L396.284 192.839L409.209 376.986L411.094 376.854ZM407.471 394.645C410.275 389.155 411.527 383.003 411.094 376.853L409.209 376.986C409.618 382.793 408.435 388.602 405.787 393.786L407.471 394.645ZM395.182 408.013C400.418 404.758 404.667 400.136 407.471 394.645L405.787 393.786C403.14 398.97 399.128 403.334 394.184 406.408L395.182 408.013ZM395.187 408.38C395.311 408.119 395.431 407.856 395.548 407.592L393.819 406.828C393.709 407.077 393.595 407.325 393.479 407.571L395.187 408.38ZM288.236 96.3776C290.679 96.2052 293.152 96.1188 295.596 96.1184L295.595 94.2284C293.108 94.2288 290.591 94.3167 288.103 94.4923L288.236 96.3776ZM243.835 109.548C257.487 101.948 272.646 97.4518 288.234 96.3778L288.104 94.4922C272.239 95.5854 256.811 100.162 242.916 107.896L243.835 109.548ZM209.247 140.344C218.373 127.661 230.183 117.147 243.835 109.548L242.916 107.896C229.021 115.63 217.001 126.332 207.713 139.24L209.247 140.344ZM183.473 179.017C189.09 164.44 197.852 151.28 209.133 140.474L207.826 139.109C196.344 150.107 187.426 163.501 181.709 178.337L183.473 179.017ZM176.633 224.812C175.52 209.23 177.855 193.594 183.473 179.017L181.709 178.337C175.992 193.173 173.615 209.087 174.747 224.947L176.633 224.812ZM189.362 406.185L176.633 224.813L174.747 224.946L187.477 406.317L189.362 406.185ZM200.354 429.141C193.927 423.147 190 414.947 189.362 406.182L187.477 406.32C188.15 415.56 192.289 424.205 199.065 430.523L200.354 429.141ZM224.024 438.503C215.236 438.478 206.781 435.134 200.354 429.141L199.065 430.523C205.841 436.841 214.754 440.367 224.018 440.393L224.024 438.503ZM226.459 438.421C225.673 438.502 224.865 438.503 224.021 438.503V440.393C224.848 440.393 225.755 440.394 226.654 440.301L226.459 438.421ZM285.502 434.277L226.491 438.418L226.623 440.303L285.634 436.162L285.502 434.277ZM290.5 491.941L286.511 435.153L284.625 435.285L288.614 492.074L290.5 491.941ZM297.068 505.647C293.232 502.067 290.886 497.171 290.499 491.938L288.614 492.077C289.036 497.785 291.594 503.124 295.779 507.029L297.068 505.647ZM311.198 511.253C305.951 511.229 300.905 509.227 297.068 505.647L295.779 507.029C299.963 510.934 305.466 513.117 311.19 513.143L311.198 511.253ZM312.628 511.201C312.174 511.252 311.711 511.253 311.194 511.253V513.143C311.694 513.143 312.263 513.144 312.84 513.079L312.628 511.201ZM320.68 509.013C318.179 510.26 315.456 511.003 312.668 511.198L312.8 513.083C315.836 512.871 318.8 512.062 321.523 510.704L320.68 509.013ZM327.244 503.927C325.411 506.037 323.181 507.765 320.68 509.013L321.523 510.704C324.246 509.345 326.675 507.464 328.671 505.166L327.244 503.927ZM331.361 496.716C330.476 499.366 329.077 501.817 327.244 503.927L328.671 505.166C330.667 502.869 332.19 500.201 333.154 497.314L331.361 496.716ZM332.404 488.477C332.601 491.265 332.247 494.065 331.361 496.716L333.154 497.314C334.118 494.428 334.504 491.38 334.289 488.344L332.404 488.477ZM328.459 432.205L332.404 488.477L334.29 488.345L330.344 432.072L328.459 432.205ZM367 428.551L329.335 431.196L329.468 433.081L367.133 430.437L367 428.551ZM384.207 422.567C379.108 426.06 373.168 428.126 367.002 428.551L367.132 430.437C373.634 429.989 379.898 427.81 385.275 424.126L384.207 422.567ZM396 408.684C393.377 414.28 389.305 419.073 384.207 422.567L385.275 424.126C390.652 420.442 394.945 415.387 397.711 409.486L396 408.684ZM408.438 394.668C405.691 400.207 401.514 404.911 396.339 408.294L397.373 409.876C402.83 406.309 407.234 401.349 410.131 395.508L408.438 394.668ZM411.963 376.791C412.402 382.958 411.185 389.13 408.438 394.668L410.131 395.508C413.028 389.668 414.311 383.159 413.848 376.657L411.963 376.791ZM399.023 192.643L411.963 376.79L413.848 376.657L400.908 192.51L399.023 192.643ZM366.3 124.03C385.491 141.94 397.184 166.457 399.023 192.643L400.908 192.51C399.035 165.848 387.13 140.885 367.589 122.649L366.3 124.03ZM295.594 96.1184C321.844 96.147 347.109 106.12 366.3 124.03L367.589 122.649C348.049 104.413 322.324 94.2575 295.597 94.2284L295.594 96.1184ZM296.694 506.042C300.625 509.706 305.795 511.752 311.169 511.77L311.175 509.88C306.277 509.864 301.566 507.999 297.983 504.659L296.694 506.042ZM289.966 492.004C290.36 497.364 292.763 502.377 296.694 506.042L297.983 504.659C294.4 501.319 292.21 496.75 291.851 491.865L289.966 492.004ZM285.882 433.839L289.966 492.001L291.851 491.868L287.768 433.707L285.882 433.839ZM226.499 438.952L286.891 434.716L286.759 432.831L226.367 437.067L226.499 438.952ZM223.999 439.041C224.828 439.041 225.672 439.012 226.501 438.952L226.365 437.067C225.582 437.123 224.783 437.151 223.999 437.151V439.041ZM199.994 429.534C206.511 435.615 215.083 439.01 223.996 439.041L224.002 437.151C215.566 437.122 207.452 433.908 201.283 428.152L199.994 429.534ZM188.85 406.247C189.497 415.136 193.477 423.454 199.994 429.534L201.283 428.152C195.115 422.397 191.348 414.524 190.735 406.11L188.85 406.247ZM176.113 224.851L188.85 406.245L190.735 406.112L177.999 224.719L176.113 224.851ZM183.014 178.773C177.352 193.438 174.996 209.172 176.113 224.852L177.999 224.718C176.901 209.315 179.216 193.859 184.777 179.453L183.014 178.773ZM208.866 140.009C197.502 150.872 188.675 164.107 183.014 178.773L184.777 179.453C190.338 165.047 199.009 152.046 210.172 141.376L208.866 140.009ZM243.519 109.13C229.79 116.784 217.919 127.373 208.751 140.141L210.286 141.244C219.292 128.701 230.953 118.3 244.439 110.781L243.519 109.13ZM288.177 95.8582C272.496 96.9439 257.247 101.475 243.519 109.13L244.439 110.781C257.925 103.262 272.904 98.8102 288.307 97.7437L288.177 95.8582ZM295.587 95.6016C293.131 95.6016 290.639 95.6896 288.177 95.8581L288.306 97.7437C290.727 97.578 293.176 97.4916 295.587 97.4916V95.6016ZM366.649 123.649C347.362 105.65 321.97 95.6278 295.588 95.6016L295.586 97.4916C321.49 97.5173 346.422 107.358 365.36 125.031L366.649 123.649ZM399.535 192.605C397.688 166.288 385.937 141.648 366.649 123.649L365.36 125.031C384.298 142.704 395.836 166.897 397.649 192.737L399.535 192.605ZM412.46 376.723L399.535 192.605L397.649 192.737L410.575 376.855L412.46 376.723ZM408.799 395.046C411.648 389.38 412.913 383.048 412.46 376.722L410.575 376.856C411.003 382.843 409.806 388.835 407.11 394.197L408.799 395.046ZM396.274 408.915C401.622 405.505 405.949 400.713 408.799 395.046L407.11 394.197C404.414 399.56 400.319 404.095 395.258 407.322L396.274 408.915ZM384.645 422.849C389.857 419.236 393.996 414.281 396.626 408.51L394.906 407.727C392.418 413.188 388.501 417.876 383.568 421.296L384.645 422.849ZM367.016 429.042C373.343 428.603 379.434 426.463 384.645 422.849L383.568 421.296C378.636 424.716 372.872 426.741 366.885 427.156L367.016 429.042ZM327.978 431.781L367.017 429.042L366.884 427.156L327.846 429.895L327.978 431.781ZM332.902 488.41L328.855 430.772L326.969 430.904L331.016 488.542L332.902 488.41ZM327.611 504.233C331.402 499.869 333.305 494.177 332.902 488.41L331.016 488.542C331.384 493.809 329.646 499.007 326.184 502.994L327.611 504.233ZM312.685 511.688C318.451 511.279 323.82 508.598 327.611 504.233L326.184 502.994C322.722 506.981 317.818 509.429 312.551 509.803L312.685 511.688ZM311.172 511.77C311.679 511.77 312.205 511.747 312.732 511.683L312.504 509.807C312.072 509.86 311.624 509.88 311.172 509.88V511.77Z" fill="black"/>
</g>
<g id="stick" style="mix-blend-mode:multiply">
<path d="M284.532 426.524L330.027 423.326L334.785 491.018C334.971 493.658 334.559 496.315 333.57 498.836C332.582 501.356 331.038 503.692 329.025 505.709C327.013 507.726 324.572 509.385 321.843 510.59C319.113 511.795 316.148 512.524 313.118 512.734V512.734C307.166 513.152 301.313 511.493 296.846 508.122C292.38 504.75 289.666 499.943 289.301 494.757L284.506 426.526L284.532 426.524Z" fill="black"/>
</g>
</g>
<g id="face" style="mix-blend-mode:multiply">
<g id="mouth" style="mix-blend-mode:multiply">
<path d="M294.968 332.244C292.549 336.73 292.011 341.994 293.472 346.878C294.933 351.761 298.274 355.864 302.759 358.285C304.981 359.484 307.418 360.233 309.929 360.491C312.441 360.748 314.979 360.508 317.398 359.784C319.816 359.06 322.069 357.867 324.027 356.273C325.985 354.679 327.609 352.715 328.808 350.493C330.006 348.271 330.755 345.835 331.011 343.324C331.268 340.812 331.027 338.275 330.303 335.857C329.579 333.439 328.386 331.187 326.791 329.23C325.196 327.274 323.232 325.65 321.01 324.453V324.453" fill="black" fill-opacity="0.3"/>
</g>
<g id="eyes" style="mix-blend-mode:multiply">
<g id="eye right" style="mix-blend-mode:multiply">
<path d="M350.549 169.605C352.872 169.443 355.165 170.21 356.922 171.737C358.68 173.265 359.759 175.428 359.921 177.751L367.053 279.63C367.148 280.987 366.974 282.349 366.542 283.638C366.111 284.928 365.429 286.12 364.536 287.145C363.643 288.171 362.557 289.011 361.339 289.617C360.122 290.223 358.797 290.582 357.44 290.675V290.675C354.776 290.862 352.146 289.982 350.13 288.23C348.115 286.478 346.877 283.997 346.691 281.333L339.742 182.068C339.526 178.98 340.545 175.933 342.576 173.597C344.607 171.261 347.482 169.827 350.57 169.611L350.549 169.605Z" fill="black" fill-opacity="0.3"/>
</g>
<g id="eye left" style="mix-blend-mode:multiply">
<path d="M262.096 175.517C264.414 175.354 266.701 176.119 268.454 177.642C270.208 179.166 271.285 181.323 271.448 183.641L278.588 285.235C278.779 287.966 277.879 290.661 276.083 292.728C274.288 294.795 271.745 296.064 269.015 296.255V296.255C266.359 296.449 263.734 295.581 261.718 293.84C259.703 292.1 258.46 289.63 258.265 286.974L251.305 187.947C251.089 184.867 252.105 181.827 254.13 179.496C256.155 177.164 259.023 175.733 262.103 175.517L262.096 175.517Z" fill="black" fill-opacity="0.3"/>
</g>
<g id="glasses">
<path id="Vector_2" d="M437.233 201.084L147.591 204.863L148.181 233.997L165.582 234.241L166.416 248.425L182.025 247.764L182.362 260.727L196.061 260.178L196.572 274.964L275.129 270.779L300.712 234.898L317.522 233.574L354.587 269.596L412.922 266.844L412.584 252.103L425.645 251.849L425.563 238.388L439.216 238.005L438.505 224.853L450.44 224.551L449.109 200.899L437.233 201.084Z" fill="black"/>
<g id="Group">
<path id="Vector_3" d="M278.092 241.631L287.477 241.426L287.272 232.041L277.887 232.246L278.092 241.631Z" fill="white" stroke="#B8B814" stroke-width="0.86" stroke-miterlimit="10"/>
<path id="Vector_4" d="M268.909 251.229L278.294 251.023L278.088 241.639L268.703 241.844L268.909 251.229Z" fill="white" stroke="#B8B814" stroke-width="0.86" stroke-miterlimit="10"/>
<path id="Vector_5" d="M259.725 260.82L269.11 260.615L268.904 251.23L259.519 251.436L259.725 260.82Z" fill="white" stroke="#B8B814" stroke-width="0.86" stroke-miterlimit="10"/>
<path id="Vector_6" d="M259.31 242.046L268.695 241.84L268.49 232.455L259.105 232.661L259.31 242.046Z" fill="white" stroke="#B8B814" stroke-width="0.86" stroke-miterlimit="10"/>
<path id="Vector_7" d="M250.134 251.644L259.519 251.438L259.314 242.053L249.929 242.259L250.134 251.644Z" fill="white" stroke="#B8B814" stroke-width="0.86" stroke-miterlimit="10"/>
<path id="Vector_8" d="M240.95 261.235L250.335 261.029L250.13 251.644L240.745 251.85L240.95 261.235Z" fill="white" stroke="#B8B814" stroke-width="0.86" stroke-miterlimit="10"/>
</g>
<g id="Group_2">
<path id="Vector_9" d="M407.712 236.658L417.097 236.453L416.891 227.068L407.506 227.273L407.712 236.658Z" fill="white" stroke="#B8B814" stroke-width="0.86" stroke-miterlimit="10"/>
<path id="Vector_10" d="M398.536 246.256L407.92 246.05L407.715 236.665L398.33 236.871L398.536 246.256Z" fill="white" stroke="#B8B814" stroke-width="0.86" stroke-miterlimit="10"/>
<path id="Vector_11" d="M389.351 255.847L398.736 255.642L398.531 246.257L389.146 246.462L389.351 255.847Z" fill="white" stroke="#B8B814" stroke-width="0.86" stroke-miterlimit="10"/>
<path id="Vector_12" d="M388.938 237.08L398.323 236.874L398.117 227.489L388.732 227.695L388.938 237.08Z" fill="white" stroke="#B8B814" stroke-width="0.86" stroke-miterlimit="10"/>
<path id="Vector_13" d="M379.761 246.67L389.146 246.465L388.94 237.08L379.555 237.285L379.761 246.67Z" fill="white" stroke="#B8B814" stroke-width="0.86" stroke-miterlimit="10"/>
<path id="Vector_14" d="M370.569 256.262L379.954 256.056L379.749 246.671L370.364 246.877L370.569 256.262Z" fill="white" stroke="#B8B814" stroke-width="0.86" stroke-miterlimit="10"/>
</g>
</g>
</g>
</g>
</g>
</g>
</svg>
